<?xml version="1.0" encoding="UTF-8" standalone="no"?><svg width="423" height="339" viewBox="0 0 423 339" fill="none" xmlns="http://www.w3.org/2000/svg">
<path d="M251.566 338.961V224.744C251.566 176.551 256.867 134.623 267.47 98.9607C278.072 63.2981 294.458 30.527 316.627 0.647461H422.169C398.072 31.4908 379.277 63.298 365.783 96.0692C352.289 127.876 345.542 157.756 345.542 185.708H420.723V338.961H251.566ZM0 338.961V224.744C0 177.515 4.81928 136.069 14.4578 100.406C25.0602 63.78 41.4458 30.527 63.6145 0.647461H170.602C146.506 31.4908 127.711 63.298 114.217 96.0692C100.723 127.876 93.9759 157.756 93.9759 185.708H169.157V338.961H0Z" fill="#E1E1E1"/>
</svg>
