<?xml version="1.0" encoding="UTF-8" standalone="no"?><svg width="424" height="339" viewBox="0 0 424 339" fill="none" xmlns="http://www.w3.org/2000/svg">
<path d="M252.438 338.771H250.438V340.771H252.438V338.771ZM268.342 98.7711L270.259 99.341L270.259 99.341L268.342 98.7711ZM317.498 0.457836V-1.54216H316.492L315.892 -0.733858L317.498 0.457836ZM423.04 0.457836L424.616 1.68912L427.141 -1.54216H423.04V0.457836ZM366.655 95.8795L368.496 96.6606L368.5 96.6509L368.504 96.641L366.655 95.8795ZM346.414 185.518H344.414V187.518H346.414V185.518ZM421.595 185.518H423.595V183.518H421.595V185.518ZM421.595 338.771V340.771H423.595V338.771H421.595ZM0.871609 338.771H-1.12839V340.771H0.871609V338.771ZM15.3294 100.217L13.4083 99.6607L13.4034 99.6778L13.3987 99.695L15.3294 100.217ZM64.4861 0.457836V-1.54216H63.4796L62.8799 -0.733858L64.4861 0.457836ZM171.474 0.457836L173.05 1.68912L175.575 -1.54216H171.474V0.457836ZM115.088 95.8795L116.93 96.6606L116.934 96.6509L116.938 96.641L115.088 95.8795ZM94.8475 185.518H92.8475V187.518H94.8475V185.518ZM170.028 185.518H172.028V183.518H170.028V185.518ZM170.028 338.771V340.771H172.028V338.771H170.028ZM254.438 338.771V224.554H250.438V338.771H254.438ZM254.438 224.554C254.438 176.501 259.725 134.773 270.259 99.341L266.424 98.2012C255.754 134.094 250.438 176.222 250.438 224.554H254.438ZM270.259 99.341C280.794 63.9022 297.075 31.3415 319.104 1.64953L315.892 -0.733858C293.584 29.3332 277.093 62.3147 266.424 98.2012L270.259 99.341ZM317.498 2.45784H423.04V-1.54216H317.498V2.45784ZM421.464 -0.773453C397.267 30.1985 378.375 62.1621 364.805 95.118L368.504 96.641C381.922 64.0547 400.62 32.4038 424.616 1.68912L421.464 -0.773453ZM364.814 95.0984C351.239 127.096 344.414 157.243 344.414 185.518H348.414C348.414 157.89 355.083 128.277 368.496 96.6606L364.814 95.0984ZM346.414 187.518H421.595V183.518H346.414V187.518ZM419.595 185.518V338.771H423.595V185.518H419.595ZM421.595 336.771H252.438V340.771H421.595V336.771ZM2.87161 338.771V224.554H-1.12839V338.771H2.87161ZM2.87161 224.554C2.87161 177.455 7.67828 136.192 17.2602 100.739L13.3987 99.695C3.70349 135.567 -1.12839 177.195 -1.12839 224.554H2.87161ZM17.2506 100.773C27.7884 64.3696 44.0691 31.3329 66.0923 1.64953L62.8799 -0.733858C40.5656 29.3419 24.0753 62.8111 13.4083 99.6607L17.2506 100.773ZM64.4861 2.45784H171.474V-1.54216H64.4861V2.45784ZM169.898 -0.773453C145.701 30.1985 126.809 62.1621 113.239 95.118L116.938 96.641C130.356 64.0547 149.054 32.4038 173.05 1.68912L169.898 -0.773453ZM113.247 95.0984C99.6725 127.096 92.8475 157.243 92.8475 185.518H96.8475C96.8475 157.89 103.516 128.277 116.93 96.6606L113.247 95.0984ZM94.8475 187.518H170.028V183.518H94.8475V187.518ZM168.028 185.518V338.771H172.028V185.518H168.028ZM170.028 336.771H0.871609V340.771H170.028V336.771Z" fill="black" fill-opacity="0.4"/>
</svg>
